<?xml version="1.0" encoding="iso-8859-1"?>
<!-- Generator: Adobe Illustrator 16.0.0, SVG Export Plug-In . SVG Version: 6.00 Build 0)  -->
<!DOCTYPE svg PUBLIC "-//W3C//DTD SVG 1.1//EN" "http://www.w3.org/Graphics/SVG/1.1/DTD/svg11.dtd">
<svg version="1.1" id="Capa_1" xmlns="http://www.w3.org/2000/svg" xmlns:xlink="http://www.w3.org/1999/xlink" x="0px" y="0px"
	 width="234.45px" height="234.449px" viewBox="0 0 234.45 234.449" style="enable-background:new 0 0 234.45 234.449;"
	 xml:space="preserve">
<g>
	<g>
		<path d="M198.85,10.62C188.287,3.472,178.448,0,168.76,0c-18.693,0-32.208,13.222-44.136,24.894
			c-10.706,10.473-20.814,20.36-33.019,20.36c-6.405,0-13.331-2.581-21.173-7.884l-12.412-8.398v94.801l3.493,2.366
			c10.563,7.146,20.404,10.621,30.093,10.621c18.69,0,32.205-13.226,44.133-24.892c10.703-10.47,20.816-20.36,33.026-20.36
			c6.405,0,13.328,2.576,21.173,7.884l12.412,8.398V12.984L198.85,10.62z M186.438,79.37c-6.027-2.529-11.884-3.775-17.678-3.775
			c-18.698,0-32.219,13.225-44.146,24.894c-10.701,10.467-20.809,20.357-33.013,20.357c-5.435,0-11.247-1.864-17.673-5.665V57.387
			c6.027,2.529,11.881,3.774,17.678,3.774c18.695,0,32.216-13.228,44.144-24.894c10.703-10.473,20.811-20.355,33.016-20.355
			c5.432,0,11.247,1.859,17.678,5.662V79.37H186.438z"/>
		<path d="M48.216,46.549c-0.005-1.311-0.021-2.582,0.09-3.835c0.148-1.234,0.202-2.444-0.122-3.619
			c0.005-0.282,0.031-0.546,0.031-0.834c0-11.713-3.558-21.209-7.954-21.209c-4.396,0-7.954,9.496-7.954,21.209
			c0,0.28,0.026,0.547,0.031,0.829c-0.329,1.175-0.269,2.384-0.122,3.619c0.106,1.253,0.096,2.529,0.091,3.834
			c0,20.88,0,48.718,0,76.556s0,55.675,0.005,76.559c-0.005,1.305,0.031,2.573-0.07,3.831c-0.184,1.254-0.168,2.471,0.207,3.656
			c0.622,2.377,1.209,4.64,1.761,6.752c1.062,4.241,2.159,7.938,3.045,10.978c1.776,6.095,3.006,9.574,3.006,9.574
			s1.229-3.479,3.011-9.574c0.88-3.034,1.983-6.736,3.045-10.973c0.552-2.117,1.139-4.375,1.761-6.746
			c0.375-1.196,0.391-2.413,0.207-3.661c-0.101-1.253-0.06-2.532-0.07-3.837c0-20.884,0-48.721,0-76.559
			S48.216,67.424,48.216,46.549z"/>
	</g>
</g>
</svg>
