<?xml version="1.0" encoding="iso-8859-1"?>
<!-- Generator: Adobe Illustrator 16.0.0, SVG Export Plug-In . SVG Version: 6.00 Build 0)  -->
<!DOCTYPE svg PUBLIC "-//W3C//DTD SVG 1.1//EN" "http://www.w3.org/Graphics/SVG/1.1/DTD/svg11.dtd">
<svg version="1.1" id="Capa_1" xmlns="http://www.w3.org/2000/svg" xmlns:xlink="http://www.w3.org/1999/xlink" x="0px" y="0px"
	 width="324.592px" height="324.591px" viewBox="0 0 324.592 324.591" style="enable-background:new 0 0 324.592 324.591;"
	 xml:space="preserve">
<g>
	<g>
		<path d="M10.531,192.251l111.249,11.506c0.138,0.461,0.238,0.787,0.238,0.787s64.846-6.603,86.672-16.855
			c16.295,1.279,49.652,4.381,71.81,6.524c0.384,0.031,0.767,0.052,1.145,0.052c4.453,0,8.425-2.526,10.397-6.327
			c-6.7-3.475-11.646-9.812-13.069-17.45c-0.569-0.058-1.17-0.114-1.807-0.176l-58.539,3.235c0.052-0.61,0.099-1.227,0.099-1.854
			c0-0.616-0.021-1.228-0.062-1.854l33.704-1.874l26.196-1.45l1.844-0.104l1.766-0.094c0.026,0,0.052-0.011,0.078-0.011
			c5.4-0.352,9.538-4.991,9.232-10.392c-0.119-2.16-0.958-4.106-2.237-5.67c-0.394-0.476-0.823-0.917-1.295-1.315
			c-0.491-0.415-1.015-0.771-1.584-1.088c-1.419-0.782-3.034-1.269-4.764-1.269l-0.533,0.021l-24.602,1.367l-41.229,2.289
			l-4.339,0.238c-0.477-0.616-0.974-1.196-1.486-1.776c-0.538-0.605-1.066-1.207-1.642-1.766c-3.288-3.216-7.099-5.618-11.169-6.639
			c0,0-47.173,17.575-69.231,22.064l-59.414-12.179l-27.726-26.843c-4.66-4.51-12.083-4.386-16.591,0.27
			c-4.507,4.655-4.391,12.08,0.267,16.59l30.181,29.22c1.605,1.554,3.622,2.615,5.805,3.065l12.451,2.548l-59.404-6.137
			c-6.467-0.662-12.21,4.023-12.878,10.465C-0.604,185.82,4.082,191.583,10.531,192.251z"/>
		<path d="M256.748,144.245c-0.259-11.475-9.605-20.707-21.142-20.707c-11.703,0-21.189,9.486-21.189,21.188
			c0,0.632,0.135,1.232,0.187,1.849L256.748,144.245z"/>
		<path d="M303.403,144.726c-4.132,0-7.948,1.232-11.206,3.272c1.72,2.139,2.838,4.78,3.004,7.71
			c0.409,7.389-5.215,13.732-12.572,14.282c0.057,0.306,0.165,0.59,0.232,0.885c1.408,5.825,5.209,10.646,10.31,13.484
			c3.045,1.693,6.499,2.744,10.232,2.744c11.702,0,21.188-9.486,21.188-21.188C324.592,154.212,315.105,144.726,303.403,144.726z"/>
	</g>
</g>
<g>
</g>
<g>
</g>
<g>
</g>
<g>
</g>
<g>
</g>
<g>
</g>
<g>
</g>
<g>
</g>
<g>
</g>
<g>
</g>
<g>
</g>
<g>
</g>
<g>
</g>
<g>
</g>
<g>
</g>
</svg>
