<?xml version="1.0" encoding="iso-8859-1"?>
<!-- Generator: Adobe Illustrator 16.0.0, SVG Export Plug-In . SVG Version: 6.00 Build 0)  -->
<!DOCTYPE svg PUBLIC "-//W3C//DTD SVG 1.1//EN" "http://www.w3.org/Graphics/SVG/1.1/DTD/svg11.dtd">
<svg version="1.1" id="Capa_1" xmlns="http://www.w3.org/2000/svg" xmlns:xlink="http://www.w3.org/1999/xlink" x="0px" y="0px"
	 width="448.885px" height="448.884px" viewBox="0 0 448.885 448.884" style="enable-background:new 0 0 448.885 448.884;"
	 xml:space="preserve">
<g>
	<g>
		<path fill="red" d="M166.749,439.178c2.506,6.055,8.352,9.706,14.515,9.706c2.002,0,4.038-0.385,5.999-1.198l221.242-91.55
			c8.011-3.314,11.822-12.495,8.5-20.51L282.139,9.702C279.63,3.659,273.791,0,267.62,0c-2.004,0-4.036,0.385-5.995,1.2
			L40.383,92.752c-8.015,3.312-11.826,12.497-8.502,20.512L166.749,439.178z M263.38,25.96L392.242,337.37l-206.739,85.554
			L56.641,111.517L263.38,25.96z"/>
	</g>
</g>
</svg>
